<svg id="shopping-cart_1_" data-name="shopping-cart (1)" xmlns="http://www.w3.org/2000/svg" width="20" height="18.333" viewBox="0 0 20 18.333">
  <g id="Group_89" data-name="Group 89">
    <g id="Group_88" data-name="Group 88">
      <path id="Path_2072" data-name="Path 2072" d="M19.917,23.9a.439.439,0,0,0-.333-.16H3.75l-.417-2.085c0-.16-.25-.321-.417-.321H.417a.4.4,0,1,0,0,.8H2.583l2,9.785a2.91,2.91,0,0,0,2.833,2.246H17a.4.4,0,1,0,0-.8H7.5a1.94,1.94,0,0,1-1.667-.882L18,30.879a.352.352,0,0,0,.333-.321L20,24.141A.386.386,0,0,0,19.917,23.9Zm-2.333,6.256L5.417,31.681l-1.5-7.219H19Z" transform="translate(0 -21.334)" fill="#606060"/>
    </g>
  </g>
  <g id="Group_91" data-name="Group 91" transform="translate(4.869 13.75)">
    <g id="Group_90" data-name="Group 90">
      <path id="Path_2073" data-name="Path 2073" d="M130.292,384a2.292,2.292,0,1,0,2.292,2.292A2.269,2.269,0,0,0,130.292,384Zm0,3.667a1.375,1.375,0,1,1,1.375-1.375A1.41,1.41,0,0,1,130.292,387.667Z" transform="translate(-128 -384)" fill="#606060"/>
    </g>
  </g>
  <g id="Group_93" data-name="Group 93" transform="translate(12.667 13.75)">
    <g id="Group_92" data-name="Group 92">
      <path id="Path_2074" data-name="Path 2074" d="M343.626,384a2.292,2.292,0,1,0,2.292,2.292A2.269,2.269,0,0,0,343.626,384Zm0,3.667A1.375,1.375,0,1,1,345,386.292,1.41,1.41,0,0,1,343.626,387.667Z" transform="translate(-341.334 -384)" fill="#606060"/>
    </g>
  </g>
</svg>
